# xmcd
#
# Track frame offsets:
#	150
#	9994
#	21571
#	36795
#	49980
#	67719
#	79355
#	87518
#	101042
#	114020
#	125009
#	141402
#	155082
#	164280
#	179384
#
# Disc length: 2567 seconds
# Revision: 2
# Processed by: cddbd v1.5.2PL0 Copyright (c) Steve Scherf et al.
# Submitted via: dBpowerAMP V12.0
#
DISCID=ca0a050f
DTITLE=Various Artist - Ralph Emery Presents Country Roads: Devil Woman
DYEAR=2006
DGENRE=Country
TTITLE0=Buck Owens - I've Got A Tiger By The Tail
TTITLE1=Jack Greene - There Goes My Everything
TTITLE2=Mel Tillis - Coca Cola Cowboy
TTITLE3=Kenny Rogers and The First Edition - Ruby, Don't Take Your Love To Town
TTITLE4=Red Sovine - Giddy Up Go
TTITLE5=Johnny Horton - When It's Springtime In Alaska (It's Forty Below)
TTITLE6=Roger Miller - Dang Me
TTITLE7=Ray Price - City Lights
TTITLE8=Marty Robbins - Devil Woman
TTITLE9=Conway Twitty - Hello Darlin'
TTITLE10=Barbara  Mandrell and George Jones - I Was Country When Country Wasn't Cool
TTITLE11=George Jones and Tammy Wynette - Golden Ring
TTITLE12=Charley Pride - Kiss An Angel Good Morning
TTITLE13=B. J. Thomas - (Hey Won't You Play) Another Somebody Done Somebody Wrong Song
TTITLE14=Dolly Parton - Here You Come Again
EXTD=
EXTT0=
EXTT1=
EXTT2=
EXTT3=
EXTT4=
EXTT5=
EXTT6=
EXTT7=
EXTT8=
EXTT9=
EXTT10=
EXTT11=
EXTT12=
EXTT13=
EXTT14=
PLAYORDER=
